<svg width="55" height="28" viewBox="0 0 55 28" fill="none" xmlns="http://www.w3.org/2000/svg">
<path d="M35.0942 3.03144C32.5901 5.16097 31.0052 8.32977 31.0052 11.867C31.0052 10.905 30.6118 10.0285 29.9773 9.39998C29.3462 8.76805 28.4661 8.37617 27.5002 8.37617C25.5645 8.37617 23.9952 9.93909 23.9952 11.867C23.9952 8.32977 22.4103 5.16097 19.9062 3.03144C21.9467 1.28633 24.6026 0.231018 27.5002 0.231018C30.3978 0.231018 33.0537 1.28633 35.0942 3.03144Z" fill="#003D83"/>
<path d="M23.9952 11.867V27.7688H15.8173V11.867C15.8173 8.32977 17.4022 5.16096 19.9062 3.03143C22.4103 5.16096 23.9952 8.32977 23.9952 11.867Z" fill="#00234B"/>
<path d="M19.9062 3.03172C17.4021 5.16125 15.8173 8.33005 15.8173 11.8672C15.8173 10.9053 15.4238 10.0287 14.7893 9.40026C14.1583 8.76833 13.2781 8.37646 12.3123 8.37646C10.3765 8.37646 8.80723 9.93937 8.80723 11.8672V27.7691H0.629395V11.8672C0.629395 5.44026 5.85962 0.231873 12.3123 0.231873C15.2098 0.2313 17.8658 1.28661 19.9062 3.03172Z" fill="#003D83"/>
<path d="M39.183 11.867V27.7688H31.0052V11.867C31.0052 8.32977 32.59 5.16096 35.0941 3.03143C37.5982 5.16096 39.183 8.32977 39.183 11.867Z" fill="#C242CA"/>
<path d="M42.6881 13.4184H39.183V21.1757H42.6881V13.4184Z" fill="#FD44E0"/>
<path d="M54.371 11.867H46.1932C46.1932 10.905 45.7997 10.0285 45.1652 9.39998C44.5341 8.76805 43.654 8.37617 42.6881 8.37617C40.7524 8.37617 39.1831 9.93909 39.1831 11.867C39.1831 8.32977 37.5983 5.16097 35.0942 3.03144C37.1346 1.28633 39.7906 0.231018 42.6881 0.231018C49.1414 0.231018 54.371 5.43998 54.371 11.867Z" fill="#FD44E0"/>
</svg>
